<svg width="14" height="14" viewBox="0 0 14 14" fill="none" xmlns="http://www.w3.org/2000/svg">
<g clip-path="url(#clip0_137528_2)">
<path d="M3.45077 0.792969C2.5785 0.902344 1.84842 1.26055 1.23045 1.88398C0.675376 2.4418 0.341782 3.03242 0.150376 3.80078C-0.188687 5.13242 0.0574068 6.44492 0.872251 7.67813C1.39452 8.46836 2.06991 9.19297 3.30858 10.2977C4.09608 11.0004 6.49959 13.0512 6.61717 13.1195C6.72655 13.1852 6.76756 13.1934 6.99999 13.1934C7.23241 13.1934 7.27342 13.1852 7.3828 13.1195C7.50038 13.0512 9.90936 10.9977 10.6914 10.2977C11.9355 9.1875 12.6055 8.46563 13.1277 7.67813C13.9426 6.44492 14.1887 5.13242 13.8496 3.80078C13.6582 3.03242 13.3246 2.4418 12.7695 1.88398C12.2172 1.32891 11.6265 1.00898 10.8527 0.844922C10.4644 0.762891 9.74803 0.754688 9.40897 0.83125C8.46288 1.03633 7.73827 1.50938 7.07655 2.35156L6.99999 2.44727L6.92616 2.35156C6.27264 1.52578 5.55897 1.05273 4.64842 0.844922C4.37772 0.782031 3.75428 0.754688 3.45077 0.792969ZM4.36405 1.62695C5.14061 1.76367 5.81053 2.21211 6.341 2.95313C6.43124 3.08164 6.54334 3.23477 6.58709 3.29766C6.78944 3.58203 7.21053 3.58203 7.41288 3.29766C7.45663 3.23477 7.56874 3.08164 7.65897 2.95313C8.38358 1.94141 9.39256 1.46563 10.4918 1.61602C11.7113 1.78281 12.6629 2.63594 13.0265 3.89102C13.3137 4.88359 13.1879 5.92539 12.6656 6.86328C12.2281 7.64805 11.498 8.47109 10.2265 9.61133C9.61131 10.1609 7.02459 12.3867 6.99999 12.3867C6.97264 12.3867 4.39686 10.1691 3.77342 9.61133C1.81834 7.85859 1.04725 6.76484 0.861313 5.48242C0.741001 4.65391 0.913266 3.7625 1.33163 3.05977C1.96053 2.00156 3.18553 1.42188 4.36405 1.62695Z" fill="#D3D3D3"/>
</g>
<defs>
<clipPath id="clip0_137528_2">
<rect width="14" height="14" fill="white"/>
</clipPath>
</defs>
</svg>
